<svg width="187" height="168" viewBox="0 0 187 168" fill="none" xmlns="http://www.w3.org/2000/svg">
<path d="M41.1629 167H149.554C152.533 167.007 155.404 165.882 157.593 163.848C166.724 155.344 174.029 145.049 179.058 133.599C184.088 122.149 186.735 109.784 186.838 97.2662C187.306 46.3659 146.178 4.48416 95.5802 4.36403C44.9541 4.24384 3.87652 45.495 3.87652 96.3982C3.86207 109.068 6.45517 121.603 11.4925 133.214C16.5299 144.826 23.9024 155.263 33.1459 163.867C35.3301 165.891 38.1936 167.01 41.1629 167V167Z" fill="white" fill-opacity="0.3"/>
<path d="M79.6488 144.687C79.9944 140.647 77.8876 137.169 74.9432 136.917C71.9988 136.665 69.3317 139.735 68.9861 143.774C68.6405 147.814 70.7473 151.292 73.6917 151.544C76.6361 151.796 79.3032 148.726 79.6488 144.687Z" fill="#6378AE"/>
<path d="M76.3136 149.69C77.0575 146.83 74.48 143.684 70.5566 142.664C66.6333 141.643 62.8497 143.134 62.1058 145.994C61.3619 148.854 63.9393 152 67.8627 153.021C71.7861 154.041 75.5696 152.55 76.3136 149.69Z" fill="#6378AE"/>
<path d="M75.5669 151.415C78.2374 149.527 78.3023 145.026 75.7118 141.363C73.1213 137.699 68.8565 136.26 66.186 138.149C63.5155 140.037 63.4506 144.538 66.041 148.201C68.6315 151.864 72.8963 153.303 75.5669 151.415Z" fill="#6378AE"/>
<path d="M124.137 14.9004C125.576 14.9004 127 15.1837 128.329 15.7342C129.658 16.2847 130.866 17.0915 131.883 18.1086C132.9 19.1258 133.707 20.3333 134.257 21.6623C134.808 22.9912 135.091 24.4156 135.091 25.8541C135.091 25.8614 135.09 25.8685 135.09 25.8758L143.297 24.2434V36.8077H124.137C121.233 36.8059 118.449 35.6511 116.396 33.5971C114.344 31.543 113.19 28.758 113.19 25.8541C113.19 22.9501 114.344 20.1651 116.396 18.1111C118.449 16.057 121.233 14.9022 124.137 14.9004V14.9004Z" fill="#334155"/>
<path d="M143.297 0C147.466 0.000401318 151.511 1.41559 154.771 4.01402C158.031 6.61245 160.312 10.2403 161.242 14.304C162.796 14.0019 164.396 14.028 165.94 14.3807C167.483 14.7334 168.936 15.4049 170.204 16.352C171.473 17.2992 172.529 18.5012 173.306 19.8807C174.082 21.2603 174.562 22.787 174.714 24.3628C174.865 25.9387 174.686 27.5288 174.187 29.0313C173.688 30.5337 172.88 31.9151 171.816 33.087C170.751 34.2589 169.454 35.1952 168.006 35.836C166.558 36.4767 164.993 36.8077 163.41 36.8077H143.297C138.416 36.8077 133.735 34.8687 130.284 31.4174C126.833 27.966 124.894 23.2849 124.894 18.4039C124.894 13.5228 126.833 8.84176 130.284 5.39036C133.735 1.93897 138.416 0 143.297 0V0Z" fill="#334155"/>
<path d="M127.85 114.628H108.988C106.573 114.628 104.257 113.668 102.549 111.961C100.842 110.253 99.8823 107.937 99.8823 105.522C99.8823 103.107 100.842 100.791 102.549 99.0828C104.257 97.3751 106.573 96.4158 108.988 96.4158H127.85C130.779 96.4124 133.587 95.2474 135.658 93.1763C137.729 91.1052 138.894 88.2972 138.897 85.3682V70.8291C138.897 68.414 139.857 66.0979 141.564 64.3902C143.272 62.6825 145.588 61.7231 148.003 61.7231C150.418 61.7231 152.734 62.6825 154.442 64.3902C156.15 66.0979 157.109 68.414 157.109 70.8291V85.3682C157.1 93.1256 154.015 100.563 148.53 106.048C143.044 111.533 135.607 114.619 127.85 114.628V114.628Z" fill="#1A4071"/>
<path d="M97.4577 5.49463H97.4578C103.206 5.49463 108.719 7.77824 112.784 11.8431C116.849 15.9079 119.133 21.4211 119.133 27.1696V160.688H75.7827V27.1696C75.7827 21.4211 78.0663 15.9079 82.1312 11.8431C86.196 7.77824 91.7092 5.49463 97.4577 5.49463V5.49463Z" fill="#1A4071"/>
<path d="M50.6288 79.2539C49.1904 79.2539 47.766 79.5372 46.437 80.0877C45.1081 80.6382 43.9005 81.445 42.8834 82.4622C41.8663 83.4793 41.0594 84.6868 40.5089 86.0158C39.9585 87.3448 39.6751 88.7691 39.6751 90.2076C39.6751 90.2149 39.6757 90.222 39.6757 90.2293L31.4688 88.5969V101.161H50.6288C53.5339 101.161 56.32 100.007 58.3742 97.953C60.4284 95.8988 61.5825 93.1127 61.5825 90.2076C61.5825 87.3025 60.4284 84.5164 58.3742 82.4622C56.32 80.408 53.5339 79.2539 50.6288 79.2539V79.2539Z" fill="#334155"/>
<path d="M31.4685 64.3535C27.2997 64.3539 23.2546 65.7691 19.9947 68.3675C16.7349 70.966 14.4535 74.5938 13.5236 78.6575C11.9696 78.3554 10.3696 78.3815 8.82622 78.7342C7.28288 79.0869 5.83033 79.7584 4.56181 80.7056C3.29329 81.6527 2.23683 82.8547 1.46023 84.2343C0.683638 85.6138 0.204066 87.1405 0.0523022 88.7163C-0.099462 90.2922 0.0799344 91.8823 0.578976 93.3848C1.07802 94.8872 1.88568 96.2687 2.95012 97.4405C4.01456 98.6124 5.31225 99.5487 6.75992 100.189C8.20758 100.83 9.77322 101.161 11.3564 101.161H31.4685C36.348 101.159 41.0268 99.2189 44.4763 95.7677C47.9257 92.3166 49.8635 87.6368 49.8635 82.7574C49.8635 77.8779 47.9257 73.1981 44.4763 69.747C41.0268 66.2959 36.348 64.3559 31.4685 64.3535Z" fill="#334155"/>
<path d="M91.1117 89.1263L75.7832 112.637V87.0811L91.1117 89.1263Z" fill="#1A4071"/>
<path d="M86.1473 90.5998H67.2861C59.5286 90.5911 52.0914 87.5056 46.606 82.0202C41.1206 76.5348 38.0351 69.0976 38.0264 61.3401V46.8013C38.0264 44.3862 38.9857 42.0701 40.6934 40.3624C42.4011 38.6547 44.7173 37.6953 47.1323 37.6953C49.5474 37.6953 51.8635 38.6547 53.5712 40.3624C55.2789 42.0701 56.2383 44.3862 56.2383 46.8013V61.3401C56.2416 64.2692 57.4066 67.0773 59.4777 69.1485C61.5489 71.2196 64.357 72.3847 67.2861 72.388H86.1473C88.5624 72.388 90.8785 73.3474 92.5862 75.055C94.2939 76.7627 95.2533 79.0789 95.2533 81.4939C95.2533 83.909 94.2939 86.2251 92.5862 87.9328C90.8785 89.6405 88.5624 90.5999 86.1473 90.5999L86.1473 90.5998Z" fill="#1A4071"/>
<path opacity="0.3" d="M80.7461 18.2133L80.7461 18.2133C79.9732 18.8654 79.8753 20.0206 80.5274 20.7935L83.0943 23.8358C83.7465 24.6087 84.9017 24.7067 85.6746 24.0545L85.6746 24.0545C86.4475 23.4024 86.5454 22.2472 85.8933 21.4743L83.3264 18.432C82.6743 17.6591 81.5191 17.5612 80.7461 18.2133Z" fill="#334155"/>
<path opacity="0.3" d="M147.198 73.1996C146.546 72.4267 145.391 72.3287 144.618 72.9809C143.845 73.633 143.747 74.7882 144.399 75.5611L146.966 78.6034C147.618 79.3763 148.773 79.4742 149.546 78.8221C150.319 78.17 150.417 77.0148 149.765 76.2419L147.198 73.1996Z" fill="#334155"/>
<path opacity="0.3" d="M109.81 105.636L109.81 105.636C109.037 106.288 108.939 107.443 109.591 108.216L112.158 111.259C112.81 112.032 113.965 112.13 114.738 111.477L114.738 111.477C115.511 110.825 115.609 109.67 114.957 108.897L112.39 105.855C111.738 105.082 110.583 104.984 109.81 105.636Z" fill="#334155"/>
<path opacity="0.3" d="M118.302 69.0259L118.302 69.0259C117.998 68.0615 116.969 67.5266 116.005 67.831L112.209 69.0292C111.245 69.3336 110.71 70.3621 111.014 71.3265L111.014 71.3265C111.318 72.2908 112.347 72.8258 113.311 72.5214L117.107 71.3232C118.072 71.0188 118.607 69.9903 118.302 69.0259Z" fill="#334155"/>
<path opacity="0.3" d="M54.7524 62.9971L54.7523 62.9971C54.4479 62.0327 53.4194 61.4977 52.4551 61.8022L48.6591 63.0004C47.6948 63.3048 47.1598 64.3333 47.4642 65.2977L47.4642 65.2977C47.7686 66.262 48.7971 66.797 49.7615 66.4926L53.5574 65.2944C54.5218 64.99 55.0568 63.9615 54.7524 62.9971Z" fill="#334155"/>
<path opacity="0.3" d="M96.8918 130.614L96.8918 130.614C97.8434 130.272 98.3373 129.223 97.995 128.271L96.6476 124.526C96.3053 123.574 95.2564 123.08 94.3049 123.422L94.3049 123.422C93.3533 123.765 92.8594 124.814 93.2017 125.765L94.549 129.511C94.8913 130.462 95.9402 130.956 96.8918 130.614Z" fill="#334155"/>
<path opacity="0.3" d="M89.6493 63.4091C90.658 63.3378 91.4179 62.4622 91.3465 61.4534C91.2751 60.4447 90.3995 59.6848 89.3908 59.7562L85.4202 60.0371C84.4115 60.1085 83.6516 60.9841 83.7229 61.9928C83.7943 63.0016 84.6699 63.7614 85.6787 63.6901L89.6493 63.4091Z" fill="#334155"/>
<path opacity="0.3" d="M149.197 97.4565C150.205 97.3851 150.965 96.5095 150.894 95.5008C150.823 94.4921 149.947 93.7322 148.938 93.8035L144.968 94.0845C143.959 94.1559 143.199 95.0315 143.27 96.0402C143.342 97.0489 144.217 97.8088 145.226 97.7374L149.197 97.4565Z" fill="#334155"/>
<path opacity="0.3" d="M46.9272 53.483L46.9272 53.483C47.7001 52.8309 47.798 51.6757 47.1459 50.9028L44.579 47.8604C43.9269 47.0875 42.7717 46.9896 41.9988 47.6417L41.9988 47.6417C41.2259 48.2939 41.1279 49.4491 41.7801 50.222L44.347 53.2643C44.9991 54.0372 46.1543 54.1351 46.9272 53.483Z" fill="#334155"/>
<path opacity="0.3" d="M107.411 92.4271L107.411 92.4271C107.649 91.4442 107.046 90.4546 106.063 90.2166L102.194 89.28C101.211 89.0421 100.221 89.6459 99.9834 90.6288L99.9834 90.6288C99.7454 91.6117 100.349 92.6014 101.332 92.8393L105.201 93.7759C106.184 94.0138 107.174 93.41 107.411 92.4271Z" fill="#334155"/>
<path opacity="0.3" d="M74.0814 87.8901C75.0901 87.8187 75.85 86.9431 75.7786 85.9344C75.7073 84.9257 74.8317 84.1658 73.8229 84.2371L69.8523 84.5181C68.8436 84.5894 68.0837 85.465 68.1551 86.4738C68.2264 87.4825 69.102 88.2424 70.1108 88.171L74.0814 87.8901Z" fill="#334155"/>
<path opacity="0.3" d="M99.2619 40.2295C98.6764 41.054 98.8701 42.197 99.6946 42.7826C100.519 43.3681 101.662 43.1744 102.248 42.3499L104.552 39.1045C105.138 38.28 104.944 37.1369 104.12 36.5514C103.295 35.9659 102.152 36.1596 101.567 36.9841L99.2619 40.2295Z" fill="#334155"/>
<path opacity="0.3" d="M52.552 82.3695L52.552 82.3695C53.3765 82.955 54.5196 82.7613 55.1051 81.9368L57.4099 78.6914C57.9954 77.8669 57.8017 76.7238 56.9772 76.1383L56.9772 76.1383C56.1527 75.5528 55.0096 75.7465 54.4241 76.571L52.1193 79.8164C51.5338 80.6409 51.7275 81.784 52.552 82.3695Z" fill="#334155"/>
<path opacity="0.3" d="M125.85 109.79C125.265 110.615 125.458 111.758 126.283 112.343C127.107 112.929 128.251 112.735 128.836 111.91L131.141 108.665C131.726 107.841 131.533 106.697 130.708 106.112C129.884 105.526 128.741 105.72 128.155 106.545L125.85 109.79Z" fill="#334155"/>
<path opacity="0.3" d="M80.9978 106.429L80.9978 106.429C81.8223 107.014 82.9654 106.82 83.5509 105.996L85.8557 102.75C86.4412 101.926 86.2475 100.783 85.423 100.197L85.423 100.197C84.5985 99.6119 83.4555 99.8056 82.8699 100.63L80.5651 103.875C79.9796 104.7 80.1733 105.843 80.9978 106.429Z" fill="#334155"/>
<path d="M128.897 136.708C131.259 134.755 132.02 131.776 130.597 130.054C129.173 128.332 126.104 128.519 123.742 130.472C121.379 132.425 120.618 135.404 122.042 137.126C123.466 138.848 126.535 138.661 128.897 136.708Z" fill="#6378AE"/>
<path d="M124.431 137.559C126.368 136.446 126.701 133.389 125.173 130.732C123.646 128.074 120.837 126.823 118.9 127.936C116.963 129.05 116.631 132.107 118.158 134.764C119.686 137.421 122.494 138.673 124.431 137.559Z" fill="#6378AE"/>
<path d="M128.605 132.824C129.21 129.486 127.727 126.422 125.294 125.982C122.861 125.541 120.398 127.89 119.794 131.228C119.189 134.566 120.672 137.629 123.105 138.07C125.538 138.51 128.001 136.162 128.605 132.824Z" fill="#6378AE"/>
<path d="M178.449 167.604C178.988 167.605 179.517 167.457 179.977 167.175C180.437 166.894 180.811 166.49 181.055 166.01C181.3 165.529 181.406 164.99 181.363 164.452C181.319 163.915 181.128 163.4 180.809 162.964C168.416 146.319 147.602 135.396 124.011 135.396C100.421 135.396 79.6068 146.319 67.2134 162.964C66.8948 163.4 66.7032 163.915 66.6598 164.452C66.6165 164.99 66.723 165.529 66.9676 166.01C67.2121 166.49 67.5852 166.894 68.0453 167.175C68.5054 167.457 69.0346 167.605 69.5739 167.604H178.449Z" fill="#121826"/>
<path d="M100.342 162.285C102.206 160.744 102.806 158.393 101.683 157.034C100.56 155.676 98.1381 155.823 96.2742 157.364C94.4104 158.905 93.81 161.256 94.9333 162.614C96.0565 163.973 98.4781 163.825 100.342 162.285Z" fill="#6378AE"/>
<path d="M96.8183 162.956C98.3466 162.077 98.6086 159.665 97.4034 157.569C96.1982 155.472 93.9822 154.485 92.4539 155.363C90.9255 156.242 90.6635 158.654 91.8687 160.75C93.0739 162.847 95.2899 163.834 96.8183 162.956Z" fill="#6378AE"/>
<path d="M100.111 159.219C100.588 156.585 99.4185 154.169 97.4986 153.821C95.5788 153.473 93.6358 155.327 93.1589 157.96C92.682 160.594 93.8518 163.011 95.7717 163.358C97.6916 163.706 99.6345 161.853 100.111 159.219Z" fill="#6378AE"/>
<path d="M100.193 167.604C90.9468 155.946 73.3879 148.074 53.2447 148.074C35.5801 148.074 19.9029 154.128 10.0764 163.48C9.73251 163.812 9.49583 164.24 9.39676 164.708C9.29769 165.176 9.34074 165.662 9.52039 166.106C9.70004 166.549 10.0081 166.928 10.405 167.195C10.8018 167.462 11.2695 167.604 11.7477 167.604L100.193 167.604Z" fill="#1E293B"/>
</svg>
