<svg width="21" height="20" viewBox="0 0 21 20" fill="none" xmlns="http://www.w3.org/2000/svg">
<path d="M2.99984 2.5L17.9998 17.5M9.31983 8.82248C9.0071 9.13499 8.83132 9.55894 8.83116 10.0011C8.83101 10.4432 9.00649 10.8672 9.319 11.18C9.63151 11.4927 10.0555 11.6685 10.4976 11.6687C10.9397 11.6688 11.3638 11.4933 11.6765 11.1808M8.30234 4.47083C9.01685 4.26643 9.75667 4.16403 10.4998 4.16667C13.8332 4.16667 16.6107 6.11083 18.8332 10C18.1848 11.1342 17.4898 12.1033 16.7473 12.9067M14.964 14.4575C13.6048 15.3742 12.1182 15.8333 10.4998 15.8333C7.1665 15.8333 4.389 13.8892 2.1665 10C3.30734 8.00416 4.594 6.52083 6.0265 5.54917" stroke="white" stroke-width="1.5" stroke-linecap="round" stroke-linejoin="round"/>
</svg>
