<svg width="16" height="21" viewBox="0 0 16 21" fill="none" xmlns="http://www.w3.org/2000/svg">
<path d="M15.2188 7.24984C15.2189 5.86611 14.8214 4.51148 14.0734 3.34729C13.3255 2.18309 12.2588 1.25839 11.0002 0.683285C9.74167 0.108184 8.34434 -0.0930767 6.97463 0.103471C5.60493 0.300019 4.32058 0.886093 3.27453 1.7919C2.22847 2.69771 1.4648 3.88507 1.07444 5.21261C0.68409 6.54014 0.683508 7.95189 1.07277 9.27974C1.46203 10.6076 2.22472 11.7956 3.27003 12.7023C4.31534 13.6089 5.59921 14.1961 6.96875 14.3937V15.8436H4.5625C4.289 15.8436 4.02669 15.9522 3.8333 16.1456C3.6399 16.339 3.53125 16.6013 3.53125 16.8748C3.53125 17.1483 3.6399 17.4106 3.8333 17.604C4.02669 17.7974 4.289 17.9061 4.5625 17.9061H6.96875V19.6248C6.96875 19.8983 7.0774 20.1606 7.2708 20.354C7.46419 20.5474 7.7265 20.6561 8 20.6561C8.2735 20.6561 8.53581 20.5474 8.7292 20.354C8.9226 20.1606 9.03125 19.8983 9.03125 19.6248V17.9061H11.4375C11.711 17.9061 11.9733 17.7974 12.1667 17.604C12.3601 17.4106 12.4688 17.1483 12.4688 16.8748C12.4688 16.6013 12.3601 16.339 12.1667 16.1456C11.9733 15.9522 11.711 15.8436 11.4375 15.8436H9.03125V14.3937C10.7483 14.1438 12.3181 13.2845 13.4541 11.973C14.5901 10.6614 15.2164 8.98497 15.2188 7.24984ZM2.84375 7.24984C2.84375 6.23003 3.14616 5.23312 3.71273 4.38518C4.27931 3.53724 5.08461 2.87635 6.02679 2.48608C6.96897 2.09582 8.00572 1.99371 9.00593 2.19266C10.0061 2.39162 10.9249 2.8827 11.646 3.60382C12.3671 4.32493 12.8582 5.24369 13.0572 6.2439C13.2561 7.24412 13.154 8.28087 12.7638 9.22305C12.3735 10.1652 11.7126 10.9705 10.8647 11.5371C10.0167 12.1037 9.01981 12.4061 8 12.4061C6.63295 12.4045 5.32234 11.8608 4.35569 10.8941C3.38904 9.9275 2.8453 8.61689 2.84375 7.24984Z" fill="white"/>
</svg>
