<svg width="16" height="14" viewBox="0 0 16 14" fill="none" xmlns="http://www.w3.org/2000/svg">
<path d="M6.60851 10.8274H1.35791" stroke="white" stroke-width="1.5" stroke-linecap="round" stroke-linejoin="round"/>
<path d="M8.95068 2.75023H14.2013" stroke="white" stroke-width="1.5" stroke-linecap="round" stroke-linejoin="round"/>
<path fill-rule="evenodd" clip-rule="evenodd" d="M5.27207 2.70521C5.27207 1.6255 4.39027 0.75 3.30278 0.75C2.2153 0.75 1.3335 1.6255 1.3335 2.70521C1.3335 3.78492 2.2153 4.66042 3.30278 4.66042C4.39027 4.66042 5.27207 3.78492 5.27207 2.70521Z" stroke="white" stroke-width="1.5" stroke-linecap="round" stroke-linejoin="round"/>
<path fill-rule="evenodd" clip-rule="evenodd" d="M14.6666 10.7946C14.6666 9.71485 13.7855 8.83936 12.698 8.83936C11.6098 8.83936 10.728 9.71485 10.728 10.7946C10.728 11.8743 11.6098 12.7498 12.698 12.7498C13.7855 12.7498 14.6666 11.8743 14.6666 10.7946Z" stroke="white" stroke-width="1.5" stroke-linecap="round" stroke-linejoin="round"/>
</svg>
