<svg width="19" height="19" viewBox="0 0 19 19" fill="none" xmlns="http://www.w3.org/2000/svg">
<path d="M18.5935 1.43372C18.5934 1.40106 18.5918 1.36843 18.5885 1.33584C18.587 1.32002 18.5841 1.30473 18.5818 1.28909C18.5793 1.27138 18.5772 1.25368 18.5738 1.23615C18.5703 1.21862 18.5655 1.20169 18.5611 1.18459C18.5573 1.16903 18.5538 1.15348 18.5492 1.13818C18.5442 1.12151 18.5379 1.10544 18.532 1.08911C18.5265 1.07364 18.5214 1.05809 18.5152 1.04287C18.5088 1.02766 18.5014 1.01314 18.4944 0.998187C18.4871 0.982633 18.4801 0.966734 18.4718 0.951438C18.4643 0.937258 18.4557 0.923937 18.4475 0.910187C18.4384 0.894976 18.4298 0.879594 18.42 0.864812C18.4101 0.849945 18.399 0.836023 18.3882 0.821672C18.3788 0.809039 18.37 0.796063 18.3599 0.783774C18.3397 0.75925 18.3184 0.735677 18.296 0.713133C18.2945 0.711586 18.2932 0.709867 18.2917 0.70832C18.29 0.706601 18.2881 0.705226 18.2865 0.703594C18.2641 0.681392 18.2406 0.660229 18.2163 0.640172C18.2035 0.629687 18.1901 0.620578 18.1771 0.610867C18.1632 0.600555 18.1497 0.589727 18.1353 0.580102C18.12 0.569875 18.1043 0.561023 18.0886 0.551742C18.0753 0.543836 18.0624 0.535414 18.0487 0.528195C18.033 0.519773 18.0169 0.512641 18.0007 0.504992C17.9863 0.498203 17.972 0.490984 17.9572 0.484883C17.9418 0.478438 17.9259 0.473281 17.9102 0.467695C17.8941 0.461852 17.8784 0.455664 17.8619 0.450766C17.8463 0.446039 17.8304 0.442516 17.8146 0.438562C17.7978 0.434352 17.7811 0.429625 17.764 0.426188C17.7459 0.42275 17.7279 0.420602 17.7097 0.417937C17.6945 0.415789 17.6796 0.412867 17.6642 0.411406C17.6315 0.408198 17.5989 0.406537 17.5662 0.406422L17.5625 0.40625H13.4375C13.1639 0.40625 12.9016 0.514899 12.7082 0.708296C12.5149 0.901693 12.4062 1.164 12.4062 1.4375C12.4062 1.711 12.5149 1.97331 12.7082 2.1667C12.9016 2.3601 13.1639 2.46875 13.4375 2.46875H15.0728L12.2598 5.28174C10.7982 4.18884 8.97684 3.69012 7.16236 3.88595C5.34787 4.08178 3.6749 4.95762 2.48014 6.3372C1.28538 7.71679 0.657513 9.49772 0.722901 11.3216C0.788288 13.1454 1.54208 14.8768 2.83256 16.1673C4.12305 17.4578 5.85444 18.2116 7.6783 18.277C9.50215 18.3424 11.2831 17.7145 12.6627 16.5197C14.0422 15.325 14.9181 13.652 15.1139 11.8375C15.3097 10.023 14.811 8.2017 13.7181 6.7401L16.5312 3.92728V5.5625C16.5312 5.836 16.6399 6.09831 16.8332 6.2917C17.0266 6.4851 17.2889 6.59375 17.5625 6.59375C17.836 6.59375 18.0983 6.4851 18.2917 6.2917C18.4851 6.09831 18.5937 5.836 18.5937 5.5625V1.4375L18.5935 1.43372ZM11.5834 14.7085C10.8625 15.4288 9.94413 15.9192 8.94452 16.1176C7.9449 16.3161 6.90888 16.2137 5.96742 15.8235C5.02596 15.4333 4.22133 14.7727 3.65523 13.9253C3.08913 13.0778 2.78699 12.0816 2.78699 11.0625C2.78699 10.0433 3.08913 9.04708 3.65523 8.19964C4.22133 7.3522 5.02596 6.69161 5.96742 6.30139C6.90888 5.91116 7.9449 5.80882 8.94452 6.00729C9.94413 6.20576 10.8625 6.69613 11.5834 7.41643C12.549 8.38416 13.0913 9.69542 13.0913 11.0625C13.0913 12.4296 12.549 13.7408 11.5834 14.7086V14.7085Z" fill="white"/>
</svg>
