<svg width="108" height="109" viewBox="0 0 108 109" fill="none" xmlns="http://www.w3.org/2000/svg">
<path d="M78.3561 29.3048V62.8513H17.4627V29.3048C17.4627 26.5085 19.7282 24.2429 22.5246 24.2429H73.2943C76.0907 24.2429 78.3561 26.5085 78.3561 29.3048Z" fill="white" stroke="#99A0AE" stroke-linecap="round" stroke-linejoin="round"/>
<path d="M84.6786 29.3048V67.0789C84.6786 69.8752 82.4131 72.1406 79.6168 72.1406H73.2942C76.0906 72.1406 78.356 69.8752 78.356 67.0789V29.3048C78.356 26.5085 76.0906 24.2429 73.2942 24.2429H79.6168C82.4131 24.2429 84.6786 26.5085 84.6786 29.3048Z" fill="#CACFD8" stroke="#99A0AE" stroke-linecap="round" stroke-linejoin="round"/>
<path d="M78.3535 62.847V67.077C78.3535 69.8768 76.0937 72.1371 73.2934 72.1371H22.5238C19.7238 72.1371 17.4637 69.8768 17.4637 67.077V62.847H78.3535Z" fill="#E1E4EA" stroke="#99A0AE" stroke-linecap="round" stroke-linejoin="round"/>
<path d="M32.7736 83.757H35.9136H39.3036" fill="white"/>
<path d="M32.7736 83.757H35.9136H39.3036" stroke="#99A0AE" stroke-linecap="round" stroke-linejoin="round"/>
<path d="M56.3438 83.757H39.3038C42.3936 83.757 44.5636 80.707 43.5538 77.787L41.6136 72.1371H58.6536L60.5938 77.787C61.6036 80.7069 59.4336 83.757 56.3438 83.757Z" fill="white" stroke="#99A0AE" stroke-linecap="round" stroke-linejoin="round"/>
<path d="M39.3037 83.757H35.9137" stroke="#99A0AE" stroke-linecap="round" stroke-linejoin="round"/>
<path d="M72.0984 78.5579H71.7653C64.8341 78.5579 59.2068 72.9306 59.2068 65.9994V59.5794H84.6569V65.9994C84.6569 72.9306 79.0296 78.5579 72.0984 78.5579Z" fill="white" stroke="#99A0AE" stroke-linecap="round" stroke-linejoin="round"/>
<path d="M82.5349 73.3465H85.4178C88.2449 73.3465 90.5367 71.0547 90.5367 68.2277C90.5367 65.9155 89.0035 63.9613 86.8984 63.3263" stroke="#99A0AE" stroke-linecap="round" stroke-linejoin="round"/>
<path d="M84.9949 83.7571H58.8688C57.0581 83.7571 55.5881 82.2871 55.5881 80.4764H88.2756C88.2756 82.2871 86.8056 83.7571 84.9949 83.7571Z" fill="#CACFD8" stroke="#99A0AE" stroke-linecap="round" stroke-linejoin="round"/>
<path d="M30.7781 46.0748H24.8333C24.281 46.0748 23.8333 46.5225 23.8333 47.0748V53.0196C23.8333 53.5719 24.281 54.0196 24.8333 54.0196H30.7781C31.3304 54.0196 31.7781 53.5719 31.7781 53.0196V47.0748C31.7781 46.5225 31.3304 46.0748 30.7781 46.0748Z" fill="#CACFD8"/>
<path d="M52.4251 31.2684H46.4803C45.928 31.2684 45.4803 31.7161 45.4803 32.2684V38.2132C45.4803 38.7655 45.928 39.2132 46.4803 39.2132H52.4251C52.9773 39.2132 53.4251 38.7655 53.4251 38.2132V32.2684C53.4251 31.7161 52.9773 31.2684 52.4251 31.2684Z" fill="#E1E4EA"/>
<path d="M72.1087 47.6637H38.3631C37.8108 47.6637 37.3631 48.1114 37.3631 48.6637V50.5118C37.3631 51.0641 37.8108 51.5118 38.3631 51.5118H72.1087C72.6609 51.5118 73.1087 51.0641 73.1087 50.5118V48.6637C73.1087 48.1114 72.6609 47.6637 72.1087 47.6637Z" fill="#CACFD8"/>
<path d="M72.6086 33.4921H60.01C59.4578 33.4921 59.01 33.9398 59.01 34.4921V36.3402C59.01 36.8924 59.4578 37.3402 60.01 37.3402H72.6086C73.1609 37.3402 73.6086 36.8924 73.6086 36.3402V34.4921C73.6086 33.9398 73.1609 33.4921 72.6086 33.4921Z" fill="#CACFD8"/>
<path d="M24.1307 35.2409C24.1307 35.2409 27.335 39.0389 30.9074 39.0389C34.4798 39.0389 37.5109 35.2409 37.5109 35.2409C37.5109 35.2409 34.4798 31.4429 30.9074 31.4429C27.335 31.4429 24.1307 35.2409 24.1307 35.2409Z" fill="white" stroke="#99A0AE" stroke-linecap="round" stroke-linejoin="round"/>
<path d="M30.8603 37.8788C32.2954 37.8788 33.4587 36.7155 33.4587 35.2804C33.4587 33.8453 32.2954 32.682 30.8603 32.682C29.4252 32.682 28.2619 33.8453 28.2619 35.2804C28.2619 36.7155 29.4252 37.8788 30.8603 37.8788Z" fill="#99A0AE" stroke="#99A0AE" stroke-linecap="round" stroke-linejoin="round"/>
<path d="M32.6025 2.18928C32.6025 2.18928 28.6823 6.78829 33.2523 10.7107C28.6823 6.78821 24.7309 11.3604 24.7309 11.3604C24.7309 11.3604 28.6511 6.76138 24.0811 2.83893C28.6511 6.76138 32.6025 2.18928 32.6025 2.18928Z" fill="white" stroke="#99A0AE" stroke-linecap="round" stroke-linejoin="round"/>
<path d="M84.2943 101.161C84.2943 101.161 78.2703 101.641 78.7282 107.646C78.2703 101.641 72.2432 102.08 72.2432 102.08C72.2432 102.08 78.2672 101.6 77.8093 95.5946C78.2672 101.6 84.2943 101.161 84.2943 101.161Z" fill="white" stroke="#99A0AE" stroke-linecap="round" stroke-linejoin="round"/>
</svg>
