<svg width="22" height="22" viewBox="0 0 22 22" fill="none" xmlns="http://www.w3.org/2000/svg">
<path d="M17 9.65049C17.0001 8.37583 16.6422 7.12798 15.9687 6.05555C15.2953 4.98313 14.3348 4.13131 13.2015 3.60154C12.0683 3.07177 10.8101 2.88637 9.57673 3.06743C8.3434 3.24848 7.18693 3.78836 6.24503 4.62277C5.30313 5.45718 4.61549 6.55095 4.264 7.77384C3.91251 8.99673 3.91199 10.2972 4.26249 11.5204C4.61299 12.7436 5.29975 13.8379 6.24098 14.6731C7.18221 15.5083 8.33825 16.0492 9.57143 16.2313V17.5668H7.40476C7.15849 17.5668 6.9223 17.6669 6.74816 17.8451C6.57402 18.0232 6.47619 18.2649 6.47619 18.5168C6.47619 18.7688 6.57402 19.0104 6.74816 19.1885C6.9223 19.3667 7.15849 19.4668 7.40476 19.4668H9.57143V21.05C9.57143 21.302 9.66926 21.5436 9.8434 21.7218C10.0175 21.8999 10.2537 22 10.5 22C10.7463 22 10.9825 21.8999 11.1566 21.7218C11.3307 21.5436 11.4286 21.302 11.4286 21.05V19.4668H13.5952C13.8415 19.4668 14.0777 19.3667 14.2518 19.1885C14.426 19.0104 14.5238 18.7688 14.5238 18.5168C14.5238 18.2649 14.426 18.0232 14.2518 17.8451C14.0777 17.6669 13.8415 17.5668 13.5952 17.5668H11.4286V16.2313C12.9746 16.001 14.3882 15.2095 15.4111 14.0013C16.4339 12.7931 16.9979 11.2488 17 9.65049ZM5.85714 9.65049C5.85714 8.71106 6.12944 7.79274 6.63961 7.01163C7.14977 6.23053 7.87488 5.62174 8.72326 5.26223C9.57163 4.90273 10.5052 4.80867 11.4058 4.99194C12.3064 5.17521 13.1337 5.62759 13.783 6.29186C14.4323 6.95614 14.8745 7.80247 15.0536 8.72385C15.2328 9.64522 15.1408 10.6002 14.7894 11.4682C14.438 12.3361 13.8429 13.0779 13.0794 13.5998C12.3159 14.1217 11.4183 14.4003 10.5 14.4003C9.26907 14.3989 8.08895 13.898 7.21854 13.0075C6.34814 12.1171 5.85854 10.9098 5.85714 9.65049Z" fill="white"/>
<path d="M19.9998 0.919674C19.9997 0.890444 19.9983 0.861239 19.9954 0.83206C19.994 0.817907 19.9914 0.804215 19.9894 0.790215C19.9871 0.774369 19.9852 0.758523 19.9822 0.742831C19.9791 0.727139 19.9748 0.711986 19.9708 0.696678C19.9674 0.682756 19.9643 0.668833 19.9602 0.655141C19.9557 0.640218 19.9501 0.625834 19.9448 0.611219C19.9398 0.597373 19.9353 0.58345 19.9297 0.569835C19.924 0.55622 19.9174 0.54322 19.9112 0.529836C19.9045 0.515913 19.8983 0.501682 19.8909 0.48799C19.8842 0.475298 19.8765 0.463375 19.8692 0.451068C19.861 0.437453 19.8533 0.423684 19.8445 0.410453C19.8356 0.397146 19.8257 0.384685 19.8161 0.371839C19.8076 0.360531 19.7998 0.348916 19.7907 0.337916C19.7726 0.315965 19.7536 0.294866 19.7335 0.274687C19.7322 0.273302 19.731 0.271764 19.7297 0.270379C19.7282 0.268841 19.7265 0.26761 19.725 0.266148C19.7049 0.246276 19.684 0.227333 19.6622 0.20938C19.6508 0.199996 19.6388 0.191842 19.6271 0.18315C19.6147 0.17392 19.6025 0.164228 19.5897 0.155612C19.576 0.146459 19.5619 0.138536 19.5479 0.130228C19.536 0.123151 19.5244 0.115613 19.5122 0.109152C19.4981 0.101613 19.4837 0.0952289 19.4692 0.0883829C19.4563 0.0823061 19.4436 0.0758447 19.4303 0.0703833C19.4165 0.0646142 19.4022 0.0599988 19.3882 0.0549989C19.3738 0.0497683 19.3597 0.0442299 19.3449 0.0398453C19.331 0.0356146 19.3168 0.0324608 19.3026 0.0289225C19.2876 0.0251533 19.2726 0.0209227 19.2573 0.0178458C19.2412 0.014769 19.225 0.0128459 19.2088 0.0104613C19.1952 0.00853827 19.1818 0.00592292 19.168 0.00461525C19.1388 0.00174351 19.1096 0.000256467 19.0803 0.000153905L19.0769 0H15.3847C15.1399 0 14.9051 0.0972506 14.732 0.270358C14.5589 0.443465 14.4617 0.678248 14.4617 0.923059C14.4617 1.16787 14.5589 1.40265 14.732 1.57576C14.9051 1.74887 15.1399 1.84612 15.3847 1.84612H16.8485L14.3306 4.36399C13.0223 3.38575 11.3921 2.93935 9.768 3.11463C8.14388 3.28992 6.64644 4.07387 5.57703 5.30872C4.50762 6.54357 3.94562 8.13766 4.00415 9.77016C4.06268 11.4027 4.73738 12.9524 5.89248 14.1075C7.04757 15.2626 8.59731 15.9373 10.2298 15.9958C11.8623 16.0544 13.4564 15.4924 14.6912 14.423C15.9261 13.3535 16.71 11.8561 16.8853 10.232C17.0606 8.60785 16.6142 6.97761 15.636 5.66935L18.1539 3.15163V4.61529C18.1539 4.8601 18.2511 5.09489 18.4242 5.26799C18.5974 5.4411 18.8321 5.53835 19.0769 5.53835C19.3218 5.53835 19.5565 5.4411 19.7296 5.26799C19.9027 5.09489 20 4.8601 20 4.61529V0.923059L19.9998 0.919674ZM13.7252 12.8017C13.0799 13.4465 12.2579 13.8854 11.3632 14.063C10.4684 14.2407 9.54112 14.1491 8.69843 13.7998C7.85575 13.4505 7.13553 12.8592 6.62883 12.1007C6.12212 11.3422 5.85168 10.4504 5.85168 9.53823C5.85168 8.62602 6.12212 7.73429 6.62883 6.97576C7.13553 6.21723 7.85575 5.62595 8.69843 5.27666C9.54112 4.92738 10.4684 4.83577 11.3632 5.01342C12.2579 5.19107 13.0799 5.62999 13.7252 6.27472C14.5895 7.14093 15.0749 8.31462 15.0749 9.53827C15.0749 10.7619 14.5895 11.9356 13.7252 12.8018V12.8017Z" fill="white"/>
</svg>
