<svg width="19" height="21" viewBox="0 0 19 21" fill="none" xmlns="http://www.w3.org/2000/svg">
<path d="M12.9457 0H16.869C17.7473 0 18.4595 0.553945 18.4595 1.23701V19.7629C18.4595 20.446 17.7473 21 16.869 21H12.9457C12.0675 21 11.3553 20.4461 11.3553 19.7629V1.23701C11.3552 0.553945 12.0675 0 12.9457 0Z" fill="white"/>
<path d="M2.1308 0H6.05409C6.93226 0 7.64453 0.553945 7.64453 1.23701V19.7629C7.64453 20.446 6.93232 21 6.05409 21H2.1308C1.25263 21 0.540358 20.4461 0.540358 19.7629V1.23701C0.540358 0.553945 1.25257 0 2.1308 0Z" fill="white"/>
</svg>
