<svg width="12" height="17" viewBox="0 0 12 17" fill="none" xmlns="http://www.w3.org/2000/svg">
<path fill-rule="evenodd" clip-rule="evenodd" d="M0.705883 0C1.09573 0 1.41177 0.316036 1.41177 0.705884V7.28994L11.1423 1.49092C11.2291 1.43916 11.3276 1.41187 11.428 1.41176C11.5283 1.41166 11.6269 1.43876 11.7139 1.49034C11.8008 1.54191 11.873 1.61615 11.9233 1.70557C11.9735 1.79499 12 1.89645 12 1.99975V14.9412C12 15.0972 11.9398 15.2468 11.8326 15.3571C11.7255 15.4674 11.5801 15.5294 11.4286 15.5294C11.328 15.5294 11.2292 15.502 11.1423 15.45L1.41177 9.65097V16.2353C1.41177 16.6251 1.09573 16.9412 0.705883 16.9412C0.316034 16.9412 0 16.6251 0 16.2353V8.47046V0.705882C0 0.316034 0.316034 0 0.705883 0Z" fill="white"/>
</svg>
