<svg width="12" height="17" viewBox="0 0 12 17" fill="none" xmlns="http://www.w3.org/2000/svg">
<path fill-rule="evenodd" clip-rule="evenodd" d="M11.2941 0C10.9043 0 10.5882 0.316036 10.5882 0.705884V7.28994L0.857746 1.49092C0.770903 1.43916 0.672353 1.41187 0.572008 1.41176C0.471664 1.41166 0.373062 1.43876 0.286121 1.49034C0.19918 1.54191 0.126965 1.61615 0.0767382 1.70557C0.0265116 1.79499 4.48767e-05 1.89645 0 1.99975V14.9412C0 15.0972 0.0602062 15.2468 0.167374 15.3571C0.274541 15.4674 0.419892 15.5294 0.57145 15.5294C0.672014 15.5294 0.770785 15.502 0.857746 15.45L10.5882 9.65097V16.2353C10.5882 16.6251 10.9043 16.9412 11.2941 16.9412C11.684 16.9412 12 16.6251 12 16.2353V8.47046V0.705882C12 0.316034 11.684 0 11.2941 0Z" fill="white"/>
</svg>
