<svg width="20" height="23" viewBox="0 0 20 23" fill="none" xmlns="http://www.w3.org/2000/svg">
<path d="M10 0.5L19.5 6V17L10 22.5L0.5 17V6L10 0.5ZM10 2.811L2.5 7.153V15.847L10 20.189L17.5 15.847V7.153L10 2.811ZM10 15.5C8.93913 15.5 7.92172 15.0786 7.17157 14.3284C6.42143 13.5783 6 12.5609 6 11.5C6 10.4391 6.42143 9.42172 7.17157 8.67157C7.92172 7.92143 8.93913 7.5 10 7.5C11.0609 7.5 12.0783 7.92143 12.8284 8.67157C13.5786 9.42172 14 10.4391 14 11.5C14 12.5609 13.5786 13.5783 12.8284 14.3284C12.0783 15.0786 11.0609 15.5 10 15.5ZM10 13.5C10.5304 13.5 11.0391 13.2893 11.4142 12.9142C11.7893 12.5391 12 12.0304 12 11.5C12 10.9696 11.7893 10.4609 11.4142 10.0858C11.0391 9.71071 10.5304 9.5 10 9.5C9.46957 9.5 8.96086 9.71071 8.58579 10.0858C8.21071 10.4609 8 10.9696 8 11.5C8 12.0304 8.21071 12.5391 8.58579 12.9142C8.96086 13.2893 9.46957 13.5 10 13.5Z" fill="#64748B"/>
</svg>
