<svg width="20" height="20" viewBox="0 0 20 20" fill="none" xmlns="http://www.w3.org/2000/svg">
<path d="M13.3423 3.33359C13.3393 3.33355 13.3363 3.33312 13.3333 3.33312H8.67828L9.75575 2.25565C10.0812 1.93021 10.0812 1.40253 9.75575 1.07709C9.4303 0.751647 8.90263 0.751647 8.57718 1.07709L6.07708 3.57719C6.05767 3.59661 6.03931 3.61704 6.02188 3.63825C6.01399 3.64786 6.00712 3.65802 5.99969 3.6679C5.99079 3.67977 5.98161 3.69138 5.97337 3.70372C5.96544 3.71556 5.95856 3.72786 5.95133 3.74001C5.94465 3.75118 5.93762 3.76212 5.93145 3.77365C5.92485 3.78603 5.91922 3.79876 5.91328 3.81138C5.90762 3.82341 5.9016 3.83525 5.89649 3.84756C5.89141 3.85982 5.88731 3.87236 5.88285 3.88478C5.87809 3.89799 5.87305 3.91103 5.86895 3.92455C5.8652 3.93697 5.86242 3.94963 5.85926 3.96221C5.85578 3.976 5.85191 3.98959 5.84914 4.00366C5.84625 4.01819 5.84453 4.03288 5.84246 4.04749C5.8407 4.05975 5.8384 4.07178 5.83715 4.08421C5.83449 4.11128 5.83305 4.13843 5.83305 4.16562C5.83305 4.16589 5.83301 4.16616 5.83301 4.16644C5.83301 4.16675 5.83305 4.16702 5.83305 4.16733C5.83309 4.19448 5.83449 4.22163 5.83715 4.24867C5.83836 4.26109 5.8407 4.27316 5.84246 4.28542C5.84457 4.30007 5.84625 4.31472 5.84914 4.32925C5.85191 4.34332 5.85578 4.35691 5.85926 4.3707C5.86242 4.38328 5.86516 4.3959 5.86895 4.40832C5.87305 4.42184 5.87813 4.43488 5.88285 4.44813C5.88731 4.46055 5.89141 4.47305 5.89645 4.48528C5.90157 4.49762 5.90758 4.50946 5.91325 4.52149C5.91918 4.53411 5.92481 4.54684 5.93141 4.55919C5.93758 4.57071 5.94461 4.58169 5.95133 4.59286C5.95856 4.60497 5.96544 4.61727 5.97337 4.62911C5.98165 4.64149 5.99087 4.65314 5.99977 4.66501C6.00716 4.67485 6.01399 4.68501 6.02188 4.69458C6.03931 4.71583 6.05767 4.73626 6.07708 4.75568L8.57718 7.25578C8.90263 7.58122 9.4303 7.58122 9.75575 7.25578C10.0812 6.93034 10.0812 6.40266 9.75575 6.07722L8.67828 4.99975H13.3263C13.3285 4.99975 13.3307 5.0001 13.3329 5.0001C16.0978 5.0001 18.3331 7.23543 18.3331 10.0003C18.3331 11.214 17.8484 12.3558 17.0002 13.2048C16.6749 13.5304 16.6751 14.058 17.0007 14.3833C17.3263 14.7087 17.8539 14.7084 18.1793 14.3828C19.336 13.2251 19.9998 11.6612 19.9998 10.0003C19.9998 6.31816 17.0233 3.33867 13.3423 3.33359Z" fill="white"/>
<path d="M14.0002 16.3322C14.0091 16.3204 14.0182 16.3088 14.0265 16.2965C14.0344 16.2846 14.0413 16.2723 14.0485 16.2601C14.0552 16.2489 14.0622 16.238 14.0684 16.2265C14.075 16.2141 14.0806 16.2013 14.0866 16.1886C14.0923 16.1767 14.0982 16.1649 14.1033 16.1526C14.1084 16.1403 14.1125 16.1277 14.117 16.1152C14.1217 16.1021 14.1268 16.0891 14.1308 16.0757C14.1346 16.0632 14.1374 16.0504 14.1405 16.0378C14.144 16.0241 14.1478 16.0105 14.1506 15.9966C14.1535 15.982 14.1552 15.9672 14.1574 15.9525C14.1591 15.9403 14.1614 15.9284 14.1627 15.9161C14.168 15.8614 14.168 15.8062 14.1627 15.7516C14.1614 15.7392 14.1591 15.7273 14.1574 15.7151C14.1553 15.7004 14.1535 15.6856 14.1507 15.671C14.1479 15.657 14.1441 15.6434 14.1406 15.6297C14.1374 15.6171 14.1346 15.6044 14.1309 15.5919C14.1268 15.5784 14.1217 15.5655 14.117 15.5523C14.1125 15.5398 14.1084 15.5272 14.1033 15.5149C14.0982 15.5026 14.0923 15.4909 14.0866 15.4789C14.0806 15.4662 14.075 15.4534 14.0683 15.441C14.0622 15.4295 14.0552 15.4186 14.0485 15.4075C14.0413 15.3953 14.0344 15.383 14.0264 15.3711C14.0182 15.3588 14.0091 15.3472 14.0002 15.3354C13.9928 15.3255 13.9858 15.3153 13.9779 15.3056C13.9608 15.2847 13.9426 15.2646 13.9235 15.2454C13.9233 15.2451 13.923 15.2448 13.9227 15.2445L11.4226 12.7444C11.0972 12.419 10.5695 12.419 10.2441 12.7444C9.91861 13.0699 9.91861 13.5976 10.2441 13.923L11.3215 15.0005H6.67355C6.67133 15.0005 6.66918 15.0001 6.66695 15.0001C3.90207 15.0001 1.66675 12.7648 1.66675 9.99992C1.66675 8.78627 2.15146 7.64439 2.99965 6.79545C3.32498 6.46985 3.32475 5.94222 2.99915 5.61689C2.67355 5.29156 2.14591 5.2918 1.82058 5.6174C0.663816 6.77506 0 8.33891 0 9.99984C0 13.6821 2.97653 16.6616 6.65758 16.6667C6.66059 16.6667 6.66352 16.6671 6.66652 16.6671H11.3215L10.2441 17.7446C9.91861 18.07 9.91861 18.5977 10.2441 18.9232C10.5695 19.2486 11.0972 19.2486 11.4226 18.9232L13.9227 16.4231C13.9229 16.4229 13.923 16.4228 13.9231 16.4226C13.9424 16.4033 13.9606 16.3831 13.9779 16.362C13.9859 16.3523 13.9928 16.3421 14.0002 16.3322Z" fill="white"/>
</svg>
